HIERARCHY
ROOT root
{
	OFFSET	0	13.1	24.9
	CHANNELS 6  Xposition Yposition Zposition Xrotation Yrotation Zrotation
	JOINT spine_1
	{
		OFFSET	0	9.99999	0
		CHANNELS 3  Xrotation Yrotation Zrotation
		JOINT spine_2
		{
			OFFSET	0	112	-10
			CHANNELS 3  Xrotation Yrotation Zrotation
			JOINT spine_3
			{
				OFFSET	0	206.5	19.3
				CHANNELS 3  Xrotation Yrotation Zrotation
				JOINT spine_4
				{
					OFFSET	0	110.4	14.6
					CHANNELS 3  Xrotation Yrotation Zrotation
					JOINT neck_1
					{
						OFFSET	0	71.8	-50.3
						CHANNELS 3  Xrotation Yrotation Zrotation
						JOINT neck_2
						{
							OFFSET	0	86.2	-25.8
							CHANNELS 3  Xrotation Yrotation Zrotation
							JOINT head_ee
							{
								OFFSET	0	179.8	-8.7
								CHANNELS 3  Xrotation Yrotation Zrotation
								End Site
								{
									OFFSET	1	0	0
								}
							}
						}
					}
					JOINT left_clavicle
					{
						OFFSET	-43.2	22.4	-70.8
						CHANNELS 3  Xrotation Yrotation Zrotation
						JOINT left_shoulder
						{
							OFFSET	-93.9	-5.79999	48.7
							CHANNELS 3  Xrotation Yrotation Zrotation
							JOINT left_elbow
							{
								OFFSET	-291.4	-30.8	15.2
								CHANNELS 3  Xrotation Yrotation Zrotation
								JOINT left_lowarm_twist
								{
									OFFSET	-110.7	-3.89999	13.6
									CHANNELS 3  Xrotation Yrotation Zrotation
									JOINT left_hand
									{
										OFFSET	-110.7	-3.89999	13.6
										CHANNELS 3  Xrotation Yrotation Zrotation
										JOINT left_ee
										{
											OFFSET	-80.8	-5.10001	12.1
											CHANNELS 3  Xrotation Yrotation Zrotation
											End Site
											{
												OFFSET	1	0	0
											}
										}
									}
								}
							}
						}
					}
					JOINT right_clavicle
					{
						OFFSET	43.2	22.4	-70.8
						CHANNELS 3  Xrotation Yrotation Zrotation
						JOINT right_shoulder
						{
							OFFSET	93.9	-5.79999	48.7
							CHANNELS 3  Xrotation Yrotation Zrotation
							JOINT right_elbow
							{
								OFFSET	291.4	-30.8	15.2
								CHANNELS 3  Xrotation Yrotation Zrotation
								JOINT right_lowarm_twist
								{
									OFFSET	110.7	-3.89999	13.6
									CHANNELS 3  Xrotation Yrotation Zrotation
									JOINT right_hand
									{
										OFFSET	110.7	-3.89999	13.6
										CHANNELS 3  Xrotation Yrotation Zrotation
										JOINT right_ee
										{
											OFFSET	80.8	-5.10001	12.1
											CHANNELS 3  Xrotation Yrotation Zrotation
											End Site
											{
												OFFSET	1	0	0
											}
										}
									}
								}
							}
						}
					}
				}
			}
		}
	}
	JOINT left_hip
	{
		OFFSET	-82.8	-127.5	0.300001
		CHANNELS 3  Xrotation Yrotation Zrotation
		JOINT left_knee
		{
			OFFSET	-28.2	-396.7	2.2
			CHANNELS 3  Xrotation Yrotation Zrotation
			JOINT left_ankle
			{
				OFFSET	-11.7	-411.3	35.4
				CHANNELS 3  Xrotation Yrotation Zrotation
				JOINT left_toes
				{
					OFFSET	0	-60	-88.6
					CHANNELS 3  Xrotation Yrotation Zrotation
					JOINT left_foot_ee
					{
						OFFSET	-22.5	-16.5	-42.2
						CHANNELS 3  Xrotation Yrotation Zrotation
						End Site
						{
							OFFSET	1	0	0
						}
					}
				}
			}
		}
	}
	JOINT right_hip
	{
		OFFSET	82.8	-127.5	0.300001
		CHANNELS 3  Xrotation Yrotation Zrotation
		JOINT right_knee
		{
			OFFSET	28.2	-396.7	2.2
			CHANNELS 3  Xrotation Yrotation Zrotation
			JOINT right_ankle
			{
				OFFSET	11.7	-411.3	35.4
				CHANNELS 3  Xrotation Yrotation Zrotation
				JOINT right_toes
				{
					OFFSET	0	-60	-88.6
					CHANNELS 3  Xrotation Yrotation Zrotation
					JOINT right_foot_ee
					{
						OFFSET	22.5	-16.5	-42.2
						CHANNELS 3  Xrotation Yrotation Zrotation
						End Site
						{
							OFFSET	1	0	0
						}
					}
				}
			}
		}
	}
}
MOTION
Frames: 8
Frame Time: 0.02
3538.71 764.704 -1521.76 -14.0016 70.4589 10.7076 1.51206 0.146621 1.71793 1.5137 0.0370243 1.72378 1.51494 -0.281302 1.70108 1.5109 -0.00916013 1.72415 -5.8271 7.0924 -3.15455 -5.75196 15.4246 -1.88195 -0.0 0.0 -0.0 -0.32211 23.1149 2.23258 -14.1213 -36.7951 58.2142 1.82797 -42.1576 0.70463 -21.6533 -1.24307 2.45741 -1.63533 12.2394 -5.29558 -0.0 0.0 -0.0 8.52179 16.3207 -16.3639 -33.8327 13.2286 -59.4492 1.16315 29.9491 -0.31112 -17.3551 0.923469 -2.00939 0.331409 6.96521 0.718187 0.0 0.0 0.0 -1.62577 11.2972 5.43159 -0.66755 0.0269113 0.0989081 12.0598 6.97715 -1.70178 10.4714 -0.0 -0.0 -0.0 0.0 -0.0 11.7458 -5.58351 4.91285 -6.87204 -0.221336 -1.0308 4.4033 18.9598 0.716001 -32.8375 0.0 0.0 0.0 0.0 0.0 
3536.6 759.78 -1526.12 -13.8996 71.038 10.6145 1.50751 0.142263 1.67121 1.50906 0.0356462 1.67688 1.51022 -0.274146 1.6547 1.5064 -0.00941358 1.67723 -6.6745 8.18579 -2.81085 -6.62646 17.2211 -1.20005 -0.0 0.0 -0.0 -0.57628 22.7165 1.83201 -15.4178 -37.2443 57.6751 1.85444 -42.5675 0.722464 -21.7087 -1.24742 2.46304 -1.52283 12.116 -4.63968 -0.0 0.0 -0.0 8.67113 16.0775 -16.7055 -32.7921 13.3526 -59.2393 1.13821 29.4149 -0.298771 -17.3111 0.920372 -2.00468 0.32495 6.60223 0.607578 0.0 0.0 0.0 -1.51703 11.4046 5.69642 -2.17334 0.0833647 0.323096 12.1718 6.92344 -1.71689 10.7667 -0.0 -0.0 -0.0 0.0 -0.0 11.3335 -6.89961 4.76117 -6.64742 -0.216066 -0.996733 5.64903 20.2036 0.925163 -32.8182 0.0 0.0 0.0 0.0 0.0 
3530.25 757.863 -1527.5 -12.1652 71.1352 8.71636 1.50147 0.405775 1.65456 1.50294 0.299684 1.67702 1.51197 -0.014496 1.70352 1.50801 0.254686 1.68444 -7.27122 8.89022 -3.23848 -7.23461 18.8557 -1.38803 -0.0 0.0 -0.0 -0.366631 22.7996 2.13332 -16.609 -37.1713 57.7853 1.85772 -42.6179 0.724684 -21.8454 -1.25814 2.47688 -1.4465 12.0306 -4.19513 -0.0 0.0 -0.0 8.79676 16.2852 -16.9698 -31.3682 13.7597 -58.9053 1.12794 29.1932 -0.293742 -17.2798 0.918174 -2.00133 0.314474 6.26411 0.534723 0.0 0.0 0.0 -1.36306 11.437 6.04311 -3.73268 0.135588 0.556704 11.4159 6.62654 -1.61489 10.7867 -0.0 -0.0 -0.0 0.0 -0.0 10.1635 -8.13913 5.17034 -6.48939 -0.212277 -0.972776 6.55091 21.0865 1.07848 -32.7984 0.0 0.0 0.0 0.0 0.0 
3521.66 755.043 -1529.05 -12.1676 70.7645 8.0884 1.47166 0.692825 1.65362 1.47299 0.586213 1.69434 1.49074 0.263415 1.7734 1.48676 0.540144 1.70958 -8.67708 9.98237 -3.616 -8.70682 21.1979 -1.26095 -0.0 0.0 -0.0 -0.503688 22.9581 1.96291 -18.1741 -36.6154 57.9907 1.85916 -42.64 0.725658 -21.9385 -1.26547 2.48629 -1.44217 11.9734 -4.19401 -0.0 0.0 -0.0 8.92358 16.8588 -17.216 -29.7538 14.2668 -58.1346 1.12388 29.1054 -0.291768 -16.9731 0.896714 -1.96845 0.25253 5.33428 0.558147 0.0 0.0 0.0 -0.195561 12.2176 5.93466 -8.48549 0.255263 1.27606 10.906 7.10829 -1.54538 11.0427 -0.0 -0.0 -0.0 0.0 -0.0 9.50422 -10.7612 6.6685 -6.00089 -0.20015 -0.898792 9.18146 22.3779 1.51571 -32.4924 0.0 0.0 0.0 0.0 0.0 
3514.75 750.347 -1533.93 -9.78606 70.4609 5.49444 1.31451 0.774717 1.58269 1.31566 0.67245 1.62876 1.33528 0.355628 1.72583 1.33166 0.623692 1.64804 -9.07236 11.7102 -5.58795 -9.11078 25.7935 -2.7043 -0.0 0.0 -0.0 -0.429273 22.7699 2.04281 -18.9347 -35.014 58.8786 1.80313 -41.7679 0.688018 -21.9852 -1.26914 2.491 -1.44154 12.0937 -4.13459 -0.0 0.0 -0.0 9.12868 17.2162 -17.6476 -28.5793 14.8683 -57.8393 1.11934 29.007 -0.289563 -17.464 0.931145 -2.02103 0.210341 4.67905 0.564863 0.0 0.0 0.0 3.90349 13.0941 5.00969 -21.8453 0.26915 3.32126 14.2115 9.05244 -1.98951 11.2354 -0.0 -0.0 -0.0 0.0 -0.0 8.46246 -12.7461 8.07645 -5.83221 -0.195816 -0.873269 11.7218 25.2822 1.97503 -32.2957 0.0 0.0 0.0 0.0 0.0 
3507.5 748.401 -1535.1 -7.93326 70.2092 3.22604 1.17408 0.832928 1.55261 1.17512 0.732456 1.60245 1.19619 0.415369 1.71223 1.19274 0.680536 1.62518 -9.34309 12.9581 -6.95163 -9.39423 29.0575 -3.66616 -0.0 0.0 -0.0 -0.397189 22.6401 2.0716 -19.8862 -33.8533 59.4691 1.75528 -41.0038 0.656384 -22.0015 -1.27043 2.49265 -1.43895 12.1786 -4.07919 -0.0 0.0 -0.0 9.24784 17.5803 -17.8893 -27.738 15.3435 -57.4868 1.11653 28.9459 -0.288201 -17.8115 0.955795 -2.05808 0.181821 4.23576 0.569228 0.0 0.0 0.0 6.87435 13.6781 4.40616 -31.167 -0.00240017 4.72451 16.5425 10.3986 -2.29636 11.3423 -0.0 -0.0 -0.0 0.0 -0.0 7.74691 -14.2171 9.02879 -6.01534 -0.200518 -0.900979 13.5389 27.4299 2.31997 -32.1434 0.0 0.0 0.0 0.0 0.0 
3499.36 739.414 -1543.32 -7.06817 71.0071 2.37059 1.07591 0.527 1.56877 1.07717 0.42612 1.59912 1.08954 0.112014 1.65111 1.08593 0.371336 1.61271 -10.2691 15.4482 -7.38311 -10.5355 34.0118 -3.10379 -0.0 0.0 -0.0 -0.929844 21.6394 1.19306 -21.9433 -33.2523 59.5545 1.72544 -40.518 0.636897 -21.1044 -1.20039 2.40154 -1.42911 12.2452 -3.98625 -0.0 0.0 -0.0 9.66433 18.3651 -18.7651 -26.2735 16.0435 -57.0892 1.1175 28.9671 -0.288672 -17.8164 0.956143 -2.05859 -0.0299384 0.583099 0.446152 0.0 0.0 0.0 9.39482 8.82062 4.18368 -33.061 -0.0852995 5.0033 20.481 14.625 -2.81444 8.30021 -0.0 -0.0 -0.0 0.0 -0.0 6.93611 -15.7637 9.59029 -10.41 -0.286676 -1.56968 20.7465 31.2377 3.59254 -31.937 0.0 0.0 0.0 0.0 0.0 
3492.72 736.749 -1551.94 -6.0537 73.2474 1.78628 1.07893 0.304491 1.54364 1.08023 0.20566 1.55988 1.08618 -0.0970309 1.57038 1.08277 0.152169 1.566 -10.4591 17.2382 -7.89878 -10.8619 37.7136 -2.99231 -0.0 0.0 -0.0 -1.1298 20.9453 0.809514 -23.349 -33.2323 59.8101 1.72203 -40.4621 0.634686 -20.8148 -1.17809 2.3719 -1.41991 12.272 -3.9157 -0.0 0.0 -0.0 10.3325 18.8426 -20.2282 -25.1295 16.9604 -57.2438 1.13941 29.4408 -0.299362 -17.8193 0.956353 -2.05891 -0.178987 -1.98623 0.353507 0.0 0.0 0.0 10.413 5.10214 4.47219 -34.7078 -0.164847 5.24341 23.3068 17.5622 -3.18771 6.5524 -0.0 -0.0 -0.0 0.0 -0.0 7.00782 -17.0813 9.77691 -13.4612 -0.316223 -2.03687 25.5919 33.8555 4.45905 -31.7958 0.0 0.0 0.0 0.0 0.0 
